<?xml version="1.0" standalone="no"?>
<!DOCTYPE svg PUBLIC "-//W3C//DTD SVG 20010904//EN"
 "http://www.w3.org/TR/2001/REC-SVG-20010904/DTD/svg10.dtd">
<svg version="1.0" xmlns="http://www.w3.org/2000/svg"
 width="16.000000pt" height="16.000000pt" viewBox="0 0 16.000000 16.000000"
 preserveAspectRatio="xMidYMid meet">
<metadata>
Created by potrace 1.11, written by Peter Selinger 2001-2013
</metadata>
<g transform="translate(0.000000,16.000000) scale(0.003125,-0.003125)"
fill="#000000" stroke="none">
<path d="M909 5116 c-3 -3 -27 -8 -54 -11 -28 -4 -86 -18 -130 -32 -376 -118
-649 -432 -712 -819 -10 -62 -11 -3311 -1 -3379 33 -222 135 -421 294 -577
165 -161 343 -249 579 -287 37 -6 689 -9 1715 -8 l1655 3 78 22 c352 99 598
317 720 638 69 179 66 99 64 1934 -3 1655 -3 1655 -24 1730 -61 215 -142 358
-278 490 -80 78 -79 77 -135 116 -103 72 -276 144 -405 170 -41 8 -3358 17
-3366 10z"/>
</g>
</svg>
